# xmcd
#
# Track frame offsets: 
#        150
#        19278
#        45244
#        62546
#        86546
#        116323
#        147349
#        171447
#        193500
#        218809
#
# Disc length: 3286 seconds
#
# Revision: 0
# Processed by: cddbd v1.5.2PL0 Copyright (c) Steve Scherf et al.
# Submitted via: ExactAudioCopy v0.99pb5
#
DISCID=830cd40a
DTITLE=Mac Arnold's Blues Revival - Live At The Grey Eagle
DYEAR=2011
DGENRE=Blues
TTITLE0=Gitty Up
TTITLE1=Back Bone And Gistle
TTITLE2=True To You
TTITLE3=Drivin' Wheel
TTITLE4=Ghetto Blue
TTITLE5=Screamin' An' Cryin'
TTITLE6=Sloppy Drunk
TTITLE7=Love Attack
TTITLE8=Big Boss Man
TTITLE9=Got My Mojo Workin'
EXTD=
EXTT0=
EXTT1=
EXTT2=
EXTT3=
EXTT4=
EXTT5=
EXTT6=
EXTT7=
EXTT8=
EXTT9=
PLAYORDER=
